<?xml version="1.0" ?><svg style="enable-background:new 0 0 512 512;" version="1.1" viewBox="0 0 512 512" xml:space="preserve" xmlns="http://www.w3.org/2000/svg" xmlns:xlink="http://www.w3.org/1999/xlink"><g id="_x34__x2C__Error_x2C__notice_x2C__warning_x2C__virus"><g id="XMLID_15_"><path d="M464.49,322.63c14.43,23.16,15.16,52.36,1.92,76.2    c-13.24,23.85-38.41,38.67-65.69,38.67H129.28c-27.28,0-52.45-14.82-65.69-38.67c-13.24-23.84-12.51-53.04,1.92-76.2    l135.71-217.86C215.04,82.6,238.88,69.36,265,69.36s49.96,13.24,63.78,35.41L464.49,322.63z" id="XMLID_57_" style="fill:#FFD400;"/><circle cx="445" cy="107.5" id="XMLID_54_" r="35" style="fill:#07CC66;"/><circle cx="72.5" cy="200" id="XMLID_51_" r="27.5" style="fill:#07CC66;"/><path d="M426.3,346.43c12.5,20.07-1.93,46.07-25.58,46.07H129.28    c-23.65,0-38.08-26-25.58-46.07l135.72-217.87c11.8-18.93,39.36-18.93,51.16,0L426.3,346.43z" id="XMLID_45_" style="fill:#3F4751;"/><path d="M279.14,328.36c3.62,3.62,5.86,8.62,5.86,14.14s-2.24,10.52-5.86,14.14    c-3.62,3.62-8.62,5.86-14.14,5.86c-11.05,0-20-8.95-20-20c0-5.52,2.24-10.52,5.86-14.14c3.62-3.62,8.62-5.86,14.14-5.86    S275.52,324.74,279.14,328.36z" id="XMLID_42_" style="fill:#FFD400;"/><path d="M285,192.5v85c0,11.05-8.95,20-20,20s-20-8.95-20-20v-85c0-11.05,8.95-20,20-20    c5.52,0,10.52,2.24,14.14,5.86C282.76,181.98,285,186.98,285,192.5z" id="XMLID_39_" style="fill:#FFD400;"/><circle cx="437.5" cy="200" id="XMLID_38_" r="7.5"/><circle cx="367.5" cy="75" id="XMLID_37_" r="7.5"/><circle cx="337.5" cy="475" id="XMLID_36_" r="7.5"/><circle cx="182.5" cy="45" id="XMLID_35_" r="7.5"/><circle cx="42.5" cy="445" id="XMLID_34_" r="7.5"/><path d="M400.72,442.5H129.28c-29.092,0-55.938-15.804-70.062-41.243c-14.124-25.433-13.339-56.573,2.048-81.271    l135.71-217.86C211.718,78.478,237.147,64.36,265,64.36s53.282,14.118,68.023,37.765l135.712,217.861    c15.387,24.697,16.171,55.838,2.047,81.272C456.659,426.696,429.813,442.5,400.72,442.5z M265,74.36    c-24.377,0-46.634,12.357-59.537,33.055L69.754,325.273c-13.468,21.615-14.154,48.871-1.793,71.129    c12.361,22.267,35.857,36.098,61.319,36.098h271.44c25.462,0,48.957-13.831,61.318-36.097    c12.362-22.259,11.675-49.515-1.792-71.13l-135.711-217.86C311.634,86.717,289.377,74.36,265,74.36z" id="XMLID_31_"/><path d="M400.72,397.5H129.28c-12.947,0-24.43-6.759-30.716-18.079c-6.287-11.321-5.954-24.644,0.892-35.635    l135.72-217.87c6.461-10.366,17.61-16.554,29.824-16.554c12.213,0,23.362,6.188,29.823,16.553l135.72,217.871    c6.846,10.991,7.179,24.314,0.893,35.635C425.15,390.741,413.668,397.5,400.72,397.5z M265,119.362    c-8.738,0-16.714,4.427-21.337,11.843L107.944,349.073c-4.897,7.863-5.136,17.394-0.638,25.493    c4.497,8.099,12.711,12.934,21.973,12.934h271.44c9.262,0,17.476-4.835,21.973-12.934c4.498-8.1,4.259-17.63-0.638-25.493    l-135.72-217.87C281.714,123.79,273.738,119.362,265,119.362z" id="XMLID_28_"/><path d="M265,302.5c-13.785,0-25-11.215-25-25v-85c0-13.785,11.215-25,25-25c6.674,0,12.952,2.601,17.675,7.324    c4.724,4.724,7.325,11.001,7.325,17.676v85C290,291.285,278.785,302.5,265,302.5z M265,177.5c-8.271,0-15,6.729-15,15v85    c0,8.272,6.729,15,15,15s15-6.728,15-15v-85c0-4.004-1.561-7.77-4.396-10.605C272.77,179.061,269.004,177.5,265,177.5z" id="XMLID_25_"/><path d="M265,367.5c-13.785,0-25-11.215-25-25c0-6.674,2.601-12.951,7.324-17.675    c4.724-4.724,11.001-7.325,17.676-7.325s12.952,2.602,17.676,7.325c4.723,4.724,7.324,11.001,7.324,17.675    s-2.601,12.951-7.324,17.675C277.952,364.898,271.675,367.5,265,367.5z M265,327.5c-4.004,0-7.77,1.561-10.605,4.396    C251.561,334.73,250,338.497,250,342.5c0,8.272,6.729,15,15,15c4.004,0,7.77-1.561,10.604-4.396    c2.835-2.835,4.396-6.602,4.396-10.604s-1.561-7.77-4.396-10.604C272.77,329.061,269.004,327.5,265,327.5z" id="XMLID_22_"/><path d="M445,147.5c-22.056,0-40-17.944-40-40s17.944-40,40-40s40,17.944,40,40S467.056,147.5,445,147.5z     M445,77.5c-16.542,0-30,13.458-30,30s13.458,30,30,30s30-13.458,30-30S461.542,77.5,445,77.5z" id="XMLID_19_"/><path d="M72.5,232.5C54.58,232.5,40,217.92,40,200s14.58-32.5,32.5-32.5S105,182.08,105,200    S90.42,232.5,72.5,232.5z M72.5,177.5C60.093,177.5,50,187.593,50,200s10.093,22.5,22.5,22.5S95,212.407,95,200    S84.907,177.5,72.5,177.5z" id="XMLID_16_"/></g></g><g id="Layer_1"/></svg>